HIERARCHY
ROOT ui
{
	 OFFSET 0 0 0
	 CHANNELS 3 XPosition YPosition Z Position
	 EndSite
	 {
	 OFFSET 0 -1 0
	 }
}
ROOT li
{
	 OFFSET 0 0 0
	 CHANNELS 3 XPosition YPosition Z Position
	 EndSite
	 {
	 OFFSET 0 -1 0
	 }
}
ROOT ul
{
	 OFFSET 0 0 0
	 CHANNELS 3 XPosition YPosition Z Position
	 EndSite
	 {
	 OFFSET 0 -1 0
	 }
}
ROOT ll
{
	 OFFSET 0 0 0
	 CHANNELS 3 XPosition YPosition Z Position
	 EndSite
	 {
	 OFFSET 0 -1 0
	 }
}
ROOT tt
{
	 OFFSET 0 0 0
	 CHANNELS 3 XPosition YPosition Z Position
	 EndSite
	 {
	 OFFSET 0 -1 0
	 }
}
ROOT tb
{
	 OFFSET 0 0 0
	 CHANNELS 3 XPosition YPosition Z Position
	 EndSite
	 {
	 OFFSET 0 -1 0
	 }
}
ROOT td
{
	 OFFSET 0 0 0
	 CHANNELS 3 XPosition YPosition Z Position
	 EndSite
	 {
	 OFFSET 0 -1 0
	 }
}
ROOT v
{
	 OFFSET 0 0 0
	 CHANNELS 3 XPosition YPosition Z Position
	 EndSite
	 {
	 OFFSET 0 -1 0
	 }
}
ROOT bn
{
	 OFFSET 0 0 0
	 CHANNELS 3 XPosition YPosition Z Position
	 EndSite
	 {
	 OFFSET 0 -1 0
	 }
}
MOTION
Frames: 21
Frame Time: 0.002
0.0033403580188751223	-2.3481200635433198E-4	0		0.478078369140625	-2.3171044921875	0		-1.106571533203125	-0.03010977554321289	0		-0.7163782348632812	-2.279125244140625	0		1.2968570556640624	-0.45046533203125	0		3.2715908203125	0.11373267364501953	0		4.769693359375	0.10215766143798828	0		5.573875	0.26983175659179687	0		-0.3104923095703125	5.94399365234375	0		
-0.018131019592285157	0.003844433069229126	0		0.4535860595703125	-2.313959716796875	0		-1.103048828125	-0.026574127197265623	0		-0.7159417114257812	-2.279523193359375	0		1.2914254150390625	-0.44473440551757815	0		3.239947998046875	0.11003134155273438	0		4.76426171875	0.10788871765136719	0		5.576015625	0.23443861389160156	0		-0.3100560607910156	5.943595703125	0		
0.00423773193359375	-0.0010274900197982787	0		0.456090087890625	-2.312398193359375	0		-1.0957200927734374	-0.033119487762451175	0		-0.7355194091796875	-2.281482666015625	0		1.2894954833984376	-0.4630811462402344	0		3.264142333984375	0.09711796569824219	0		4.75574658203125	0.10868982696533203	0		5.57930517578125	0.24571315002441407	0		-0.29540301513671874	5.95189453125	0		
-0.011042483329772949	0.009932123184204101	0		0.47152005004882813	-2.315109375	0		-1.0880926513671876	-0.02665907096862793	0		-0.6960081787109375	-2.280716796875	0		1.318161376953125	-0.45507763671875	0		3.263097900390625	0.11877079010009765	0		4.760396484375	0.11621560668945312	0		5.58260595703125	0.2570032653808594	0		-0.2959045715332031	5.9525302734375	0		
0.008286273002624512	0.0021483631134033205	0		0.4590955810546875	-2.311199951171875	0		-1.0975614013671875	-0.0248144588470459	0		-0.74435888671875	-2.273025390625	0		1.2787215576171875	-0.4515809326171875	0		3.236328857421875	0.10698842620849609	0		4.770857421875	0.11462621307373047	0		5.5834326171875	0.2303778839111328	0		-0.3228694763183594	5.93175	0		
-0.016220285415649415	0.0023363289833068846	0		0.45753982543945315	-2.31351171875	0		-1.1011380615234374	-0.028082242965698244	0		-0.7119879150390624	-2.279075439453125	0		1.3050506591796875	-0.45950033569335935	0		3.25081298828125	0.10632806396484375	0		4.7582177734375	0.10855413055419921	0		5.5732548828125	0.249351318359375	0		-0.32238125610351565	5.93139453125	0		
0.009257623672485352	0.0014562959671020508	0		0.4580229187011719	-2.313848388671875	0		-1.100654296875	-0.028418378829956056	0		-0.7366728515625	-2.2868662109375	0		1.285560791015625	-0.458402587890625	0		3.2711181640625	0.09755763244628907	0		4.7718291015625	0.11393212890625	0		5.57772314453125	0.2312447052001953	0		-0.3076597595214844	5.9417509765625	0		
-0.01526132106781006	0.0016842830181121827	0		0.4423703308105469	-2.31981494140625	0		-1.093311279296875	-0.034884235382080075	0		-0.70022900390625	-2.2889638671875	0		1.29190380859375	-0.4648478088378906	0		3.23797119140625	0.11497577667236328	0		4.762328125	0.11483152008056641	0		5.58102294921875	0.2426510009765625	0		-0.3071818542480469	5.941435546875	0		
0.013259563446044922	0.0037813479900360106	0		0.46100103759765626	-2.312501708984375	0		-1.085698486328125	-0.028330913543701174	0		-0.740410400390625	-2.272369384765625	0		1.3005814208984374	-0.4553182373046875	0		3.25805908203125	0.09724974822998046	0		4.77759130859375	0.10521149444580079	0		5.5877548828125	0.240070068359375	0		-0.3067163391113281	5.941142578125	0		
-0.014353339195251464	0.001120393991470337	0		0.46144549560546877	-2.3127724609375	0		-1.099271240234375	-0.029296173095703124	0		-0.665375	-2.292265869140625	0		1.306916748046875	-0.46071868896484375	0		3.279934814453125	0.11651616668701172	0		4.763236328125	0.11426248931884765	0		5.58396484375	0.2588482360839844	0		-0.3062674560546875	5.9408720703125	0		
0.011066488265991211	3.293969929218292E-4	0		0.4598272399902344	-2.31497607421875	0		-1.098845458984375	-0.029543092727661133	0		-0.709700439453125	-2.280537109375	0		1.30734228515625	-0.4609666442871094	0		3.25310595703125	0.1048573226928711	0		4.7695087890625	0.10688426208496093	0		5.5854150390625	0.22720832824707032	0		-0.3068172302246094	5.941646484375	0		
-0.016589435577392578	-0.0022854900360107424	0		0.4581864013671875	-2.31715673828125	0		-1.09844287109375	-0.029767305374145507	0		-0.7113412475585937	-2.282717529296875	0		1.307744873046875	-0.46119137573242186	0		3.2305576171875	0.10713182830810547	0		4.7688681640625	0.10468099975585937	0		5.57930029296875	0.22888612365722658	0		-0.30543524169921876	5.940400390625	0		
0.011846243858337402	-9.674499928951264E-5	0		0.4704086608886719	-2.32461767578125	0		-1.08711181640625	-0.03220782470703125	0		-0.731002685546875	-2.28448388671875	0		1.320140869140625	-0.46065411376953125	0		3.282661376953125	0.09380256652832031	0		4.7692451171875	0.10447977447509765	0		5.5825302734375	0.24049479675292967	0		-0.29086636352539064	5.94889208984375	0		
-0.0025835089683532717	0.010047966957092286	0		0.4661081237792969	-2.308691650390625	0		-1.083697998046875	-0.029453378677368164	0		-0.6916181030273437	-2.28351171875	0		1.3025816650390625	-0.456442138671875	0		3.25349609375	0.11627217102050781	0		4.76959423828125	0.10430296325683594	0		5.585740234375	0.2521461944580078	0		-0.29149795532226563	5.949734375	0		
0.012514485359191894	-4.3294799327850343E-4	0		0.463321044921875	-2.313781982421875	0		-1.0933331298828124	-0.02739446449279785	0		-0.6953831787109375	-2.28758154296875	0		1.3087908935546875	-0.4617274169921875	0		3.24227392578125	0.09136289215087891	0		4.7750859375	0.11203927612304687	0		5.5800458984375	0.2279691162109375	0		-0.30439837646484375	5.9398623046875	0		
-0.012194194793701173	-2.604600042104721E-5	0		0.4615660705566406	-2.3158740234375	0		-1.097112060546875	-0.030444692611694336	0		-0.6971599731445313	-2.2906748046875	0		1.3090767822265625	-0.46186260986328126	0		3.240842529296875	0.10427030944824218	0		4.7653955078125	0.11312520599365235	0		5.58025	0.2277434539794922	0		-0.3183555603027344	5.9290322265625	0		
-0.015010374069213867	-0.003078386068344116	0		0.4618175048828125	-2.31599169921875	0		-1.0968636474609375	-0.03056441116333008	0		-0.7097532958984375	-2.283512939453125	0		1.31519384765625	-0.468108154296875	0		3.27490869140625	0.0954190673828125	0		4.77044677734375	0.10390672302246094	0		5.58042724609375	0.22755157470703125	0		-0.3038792724609375	5.9396064453125	0		
-0.011736573219299317	-2.461560070514679E-4	0		0.46203021240234377	-2.3160927734375	0		-1.085700439453125	-0.03290652084350586	0		-0.7295794067382813	-2.2851806640625	0		1.2954302978515626	-0.46677346801757813	0		3.25044970703125	0.11086205291748047	0		4.7658525390625	0.1129185562133789	0		5.58353759765625	0.23934626770019532	0		-0.29046450805664065	5.94921923828125	0		
-0.011565411567687988	-3.3321800827980044E-4	0		0.44812142944335936	-2.3198740234375	0		-1.0924188232421874	-0.02784431266784668	0		-0.692413330078125	-2.2860732421875	0		1.323791259765625	-0.45846923828125	0		3.257184326171875	0.09063275909423828	0		4.77599951171875	0.11162197113037109	0		5.57953564453125	0.25673245239257814	0		-0.30351715087890624	5.93941650390625	0		
0.013565388679504395	-9.50314998626709E-4	0		0.48931744384765624	-2.317838623046875	0		-1.0853924560546875	-0.03307073974609375	0		-0.739066162109375	-2.27612841796875	0		1.29880419921875	-0.4639959106445313	0		3.287683349609375	0.10690828704833985	0		4.7809609375	0.10344929504394532	0		5.5943291015625	0.22469818115234375	0		-0.30339010620117185	5.9393427734375	0		
-0.011321396827697753	-4.684759974479675E-4	0		0.46245648193359373	-2.31631298828125	0		-1.096239013671875	-0.030895376205444337	0		-0.67418798828125	-2.2876015625	0		1.3357947998046875	-0.4698584289550781	0		3.2386064453125	0.09891900634765625	0		4.7762431640625	0.11150200653076171	0		5.580873046875	0.22705067443847657	0		-0.3184841613769531	5.93060888671875	0		
